<svg width="25" height="14" viewBox="0 0 25 14" fill="none" xmlns="http://www.w3.org/2000/svg">
<path d="M13.1351 0.909702L13.1357 0.910282L24.0857 11.8172C24.0857 11.8172 24.0858 11.8172 24.0858 11.8172C24.0858 11.8173 24.0858 11.8173 24.0859 11.8173C24.4381 12.1679 24.438 12.7371 24.0857 13.0876L23.8389 12.8395L24.086 13.0873C23.7348 13.4375 23.1657 13.4376 22.8145 13.0874C22.8145 13.0874 22.8145 13.0874 22.8145 13.0873L12.5 2.80804L2.18555 13.0873C1.83443 13.4375 1.26551 13.4376 0.914278 13.0876L13.1351 0.909702ZM13.1351 0.909702C12.9657 0.741788 12.7368 0.649258 12.5 0.650004M13.1351 0.909702L12.5 0.650004M12.5 0.650004C12.2632 0.649261 12.0343 0.741793 11.8649 0.909697L11.8643 0.910283L0.914274 11.8172C0.562004 12.1677 0.561907 12.7367 0.914001 13.0873L12.5 0.650004ZM12.5 0.650004C12.4994 0.650006 12.4989 0.650008 12.4983 0.650011L12.4999 0.97266L12.4999 1.00001L12.5 0.650004Z" fill="#999999" stroke="#999999" stroke-width="0.7"/>
</svg>
