<svg width="25" height="14" viewBox="0 0 25 14" fill="none" xmlns="http://www.w3.org/2000/svg">
<path d="M11.8649 13.0903L11.8643 13.0897L0.914279 2.18283C0.914261 2.18281 0.914243 2.18279 0.914226 2.18278C0.914196 2.18275 0.914167 2.18272 0.914138 2.18269C0.561905 1.83209 0.561957 1.26293 0.914275 0.91239L1.16113 1.1605L0.913997 0.912667C1.26518 0.562466 1.83426 0.562448 2.18548 0.912592C2.1855 0.912616 2.18552 0.912639 2.18555 0.912663L12.5 11.192L22.8144 0.912666C23.1656 0.562535 23.7345 0.562447 24.0857 0.912386L11.8649 13.0903ZM11.8649 13.0903C12.0343 13.2582 12.2632 13.3507 12.5 13.35M11.8649 13.0903L12.5 13.35M12.5 13.35C12.7368 13.3507 12.9657 13.2582 13.1351 13.0903L13.1357 13.0897L24.0857 2.18283C24.438 1.83233 24.4381 1.26327 24.086 0.912663L12.5 13.35ZM12.5 13.35C12.5006 13.35 12.5011 13.35 12.5017 13.35L12.5001 13.0273V13L12.5 13.35Z" fill="#999999" stroke="#999999" stroke-width="0.7"/>
</svg>
